<mxfile host="app.diagrams.net" modified="2022-10-05T02:59:23.958Z" agent="5.0 (Windows NT 10.0; Win64; x64) AppleWebKit/537.36 (KHTML, like Gecko) Chrome/106.0.0.0 Safari/537.36 Edg/106.0.1370.34" etag="-fEOMat1IJEvf3ZG4xIJ" version="20.4.0" type="github">
  <diagram id="C5RBs43oDa-KdzZeNtuy" name="Page-1">
    <mxGraphModel dx="1645" dy="2094" grid="1" gridSize="10" guides="1" tooltips="1" connect="1" arrows="1" fold="1" page="1" pageScale="1" pageWidth="827" pageHeight="1169" math="0" shadow="0">
      <root>
        <mxCell id="WIyWlLk6GJQsqaUBKTNV-0" />
        <mxCell id="WIyWlLk6GJQsqaUBKTNV-1" parent="WIyWlLk6GJQsqaUBKTNV-0" />
        <mxCell id="WIyWlLk6GJQsqaUBKTNV-2" value="" style="rounded=0;html=1;jettySize=auto;orthogonalLoop=1;fontSize=11;endArrow=block;endFill=0;endSize=8;strokeWidth=1;shadow=0;labelBackgroundColor=none;edgeStyle=orthogonalEdgeStyle;entryX=0.5;entryY=0;entryDx=0;entryDy=0;" parent="WIyWlLk6GJQsqaUBKTNV-1" source="WIyWlLk6GJQsqaUBKTNV-3" target="p3q90hySgTaN_ep3nX-Z-19" edge="1">
          <mxGeometry relative="1" as="geometry" />
        </mxCell>
        <mxCell id="WIyWlLk6GJQsqaUBKTNV-3" value="start" style="rounded=1;whiteSpace=wrap;html=1;fontSize=12;glass=0;strokeWidth=1;shadow=0;" parent="WIyWlLk6GJQsqaUBKTNV-1" vertex="1">
          <mxGeometry x="160" y="-120" width="120" height="40" as="geometry" />
        </mxCell>
        <mxCell id="WIyWlLk6GJQsqaUBKTNV-4" value="" style="rounded=0;html=1;jettySize=auto;orthogonalLoop=1;fontSize=11;endArrow=block;endFill=0;endSize=8;strokeWidth=1;shadow=0;labelBackgroundColor=none;edgeStyle=orthogonalEdgeStyle;entryX=0.5;entryY=0;entryDx=0;entryDy=0;" parent="WIyWlLk6GJQsqaUBKTNV-1" target="p3q90hySgTaN_ep3nX-Z-0" edge="1">
          <mxGeometry y="20" relative="1" as="geometry">
            <mxPoint as="offset" />
            <mxPoint x="220.05882352941182" y="249.95294117647063" as="sourcePoint" />
          </mxGeometry>
        </mxCell>
        <mxCell id="WIyWlLk6GJQsqaUBKTNV-11" value="end" style="rounded=1;whiteSpace=wrap;html=1;fontSize=12;glass=0;strokeWidth=1;shadow=0;" parent="WIyWlLk6GJQsqaUBKTNV-1" vertex="1">
          <mxGeometry x="160" y="690" width="120" height="40" as="geometry" />
        </mxCell>
        <mxCell id="p3q90hySgTaN_ep3nX-Z-0" value="move to button floor" style="rounded=1;whiteSpace=wrap;html=1;" vertex="1" parent="WIyWlLk6GJQsqaUBKTNV-1">
          <mxGeometry x="160" y="280" width="120" height="60" as="geometry" />
        </mxCell>
        <mxCell id="p3q90hySgTaN_ep3nX-Z-1" value="new botton on" style="rounded=1;whiteSpace=wrap;html=1;" vertex="1" parent="WIyWlLk6GJQsqaUBKTNV-1">
          <mxGeometry x="160" y="380" width="120" height="60" as="geometry" />
        </mxCell>
        <mxCell id="p3q90hySgTaN_ep3nX-Z-2" value="" style="endArrow=classic;html=1;rounded=0;exitX=0.5;exitY=1;exitDx=0;exitDy=0;entryX=0.5;entryY=0;entryDx=0;entryDy=0;" edge="1" parent="WIyWlLk6GJQsqaUBKTNV-1" source="p3q90hySgTaN_ep3nX-Z-0" target="p3q90hySgTaN_ep3nX-Z-1">
          <mxGeometry width="50" height="50" relative="1" as="geometry">
            <mxPoint x="160" y="430" as="sourcePoint" />
            <mxPoint x="210" y="380" as="targetPoint" />
          </mxGeometry>
        </mxCell>
        <mxCell id="p3q90hySgTaN_ep3nX-Z-3" value="동선안에 늘려진&lt;br&gt;층이 있는가" style="rhombus;whiteSpace=wrap;html=1;" vertex="1" parent="WIyWlLk6GJQsqaUBKTNV-1">
          <mxGeometry x="140" y="460" width="160" height="80" as="geometry" />
        </mxCell>
        <mxCell id="p3q90hySgTaN_ep3nX-Z-4" value="" style="endArrow=classic;html=1;rounded=0;exitX=0.5;exitY=1;exitDx=0;exitDy=0;entryX=0.5;entryY=0;entryDx=0;entryDy=0;" edge="1" parent="WIyWlLk6GJQsqaUBKTNV-1" source="p3q90hySgTaN_ep3nX-Z-1" target="p3q90hySgTaN_ep3nX-Z-3">
          <mxGeometry width="50" height="50" relative="1" as="geometry">
            <mxPoint x="160" y="390" as="sourcePoint" />
            <mxPoint x="150" y="460" as="targetPoint" />
          </mxGeometry>
        </mxCell>
        <mxCell id="p3q90hySgTaN_ep3nX-Z-15" style="edgeStyle=orthogonalEdgeStyle;rounded=0;orthogonalLoop=1;jettySize=auto;html=1;exitX=0;exitY=0.5;exitDx=0;exitDy=0;entryX=0;entryY=0.5;entryDx=0;entryDy=0;" edge="1" parent="WIyWlLk6GJQsqaUBKTNV-1" source="p3q90hySgTaN_ep3nX-Z-5" target="p3q90hySgTaN_ep3nX-Z-10">
          <mxGeometry relative="1" as="geometry">
            <mxPoint x="220" y="690" as="targetPoint" />
            <Array as="points">
              <mxPoint x="120" y="630" />
              <mxPoint x="120" y="110" />
            </Array>
          </mxGeometry>
        </mxCell>
        <mxCell id="p3q90hySgTaN_ep3nX-Z-5" value="첫 버튼 위치로 이동" style="rounded=1;whiteSpace=wrap;html=1;" vertex="1" parent="WIyWlLk6GJQsqaUBKTNV-1">
          <mxGeometry x="160" y="600" width="120" height="60" as="geometry" />
        </mxCell>
        <mxCell id="p3q90hySgTaN_ep3nX-Z-13" style="edgeStyle=orthogonalEdgeStyle;rounded=0;orthogonalLoop=1;jettySize=auto;html=1;entryX=1;entryY=0.5;entryDx=0;entryDy=0;exitX=0;exitY=0.5;exitDx=0;exitDy=0;" edge="1" parent="WIyWlLk6GJQsqaUBKTNV-1" source="p3q90hySgTaN_ep3nX-Z-6" target="p3q90hySgTaN_ep3nX-Z-5">
          <mxGeometry relative="1" as="geometry">
            <Array as="points">
              <mxPoint x="340" y="600" />
              <mxPoint x="340" y="630" />
            </Array>
          </mxGeometry>
        </mxCell>
        <mxCell id="p3q90hySgTaN_ep3nX-Z-6" value="new 버튼 위치 이동" style="rounded=1;whiteSpace=wrap;html=1;" vertex="1" parent="WIyWlLk6GJQsqaUBKTNV-1">
          <mxGeometry x="380" y="570" width="120" height="60" as="geometry" />
        </mxCell>
        <mxCell id="p3q90hySgTaN_ep3nX-Z-7" value="Yes" style="endArrow=classic;html=1;rounded=0;exitX=1;exitY=0.5;exitDx=0;exitDy=0;labelPosition=left;verticalLabelPosition=middle;align=right;verticalAlign=middle;entryX=0;entryY=0.5;entryDx=0;entryDy=0;" edge="1" parent="WIyWlLk6GJQsqaUBKTNV-1" source="p3q90hySgTaN_ep3nX-Z-3" target="p3q90hySgTaN_ep3nX-Z-29">
          <mxGeometry width="50" height="50" relative="1" as="geometry">
            <mxPoint x="280" y="390" as="sourcePoint" />
            <mxPoint x="370" y="500" as="targetPoint" />
          </mxGeometry>
        </mxCell>
        <mxCell id="p3q90hySgTaN_ep3nX-Z-8" value="No" style="endArrow=classic;html=1;rounded=0;align=center;labelPosition=center;verticalLabelPosition=top;verticalAlign=bottom;entryX=0.5;entryY=0;entryDx=0;entryDy=0;exitX=0.5;exitY=1;exitDx=0;exitDy=0;" edge="1" parent="WIyWlLk6GJQsqaUBKTNV-1" source="p3q90hySgTaN_ep3nX-Z-3" target="p3q90hySgTaN_ep3nX-Z-5">
          <mxGeometry width="50" height="50" relative="1" as="geometry">
            <mxPoint x="280" y="550" as="sourcePoint" />
            <mxPoint x="320" y="500" as="targetPoint" />
            <Array as="points">
              <mxPoint x="220" y="600" />
            </Array>
          </mxGeometry>
        </mxCell>
        <mxCell id="p3q90hySgTaN_ep3nX-Z-11" style="edgeStyle=orthogonalEdgeStyle;rounded=0;orthogonalLoop=1;jettySize=auto;html=1;exitX=0.5;exitY=1;exitDx=0;exitDy=0;entryX=0.5;entryY=0;entryDx=0;entryDy=0;" edge="1" parent="WIyWlLk6GJQsqaUBKTNV-1" source="p3q90hySgTaN_ep3nX-Z-10" target="p3q90hySgTaN_ep3nX-Z-31">
          <mxGeometry relative="1" as="geometry">
            <mxPoint x="220" y="180" as="targetPoint" />
          </mxGeometry>
        </mxCell>
        <mxCell id="p3q90hySgTaN_ep3nX-Z-10" value="wait" style="rounded=1;whiteSpace=wrap;html=1;" vertex="1" parent="WIyWlLk6GJQsqaUBKTNV-1">
          <mxGeometry x="160" y="90" width="120" height="40" as="geometry" />
        </mxCell>
        <mxCell id="p3q90hySgTaN_ep3nX-Z-21" value="Yes" style="edgeStyle=orthogonalEdgeStyle;rounded=0;orthogonalLoop=1;jettySize=auto;html=1;entryX=0;entryY=0.5;entryDx=0;entryDy=0;labelPosition=right;verticalLabelPosition=middle;align=left;verticalAlign=middle;" edge="1" parent="WIyWlLk6GJQsqaUBKTNV-1" source="p3q90hySgTaN_ep3nX-Z-19" target="WIyWlLk6GJQsqaUBKTNV-11">
          <mxGeometry relative="1" as="geometry">
            <Array as="points">
              <mxPoint x="60" y="10" />
              <mxPoint x="60" y="710" />
            </Array>
          </mxGeometry>
        </mxCell>
        <mxCell id="p3q90hySgTaN_ep3nX-Z-25" value="No" style="edgeStyle=orthogonalEdgeStyle;rounded=0;orthogonalLoop=1;jettySize=auto;html=1;entryX=0.5;entryY=0;entryDx=0;entryDy=0;labelPosition=right;verticalLabelPosition=middle;align=left;verticalAlign=middle;" edge="1" parent="WIyWlLk6GJQsqaUBKTNV-1" source="p3q90hySgTaN_ep3nX-Z-19" target="p3q90hySgTaN_ep3nX-Z-10">
          <mxGeometry relative="1" as="geometry" />
        </mxCell>
        <mxCell id="p3q90hySgTaN_ep3nX-Z-19" value="Error" style="rhombus;whiteSpace=wrap;html=1;" vertex="1" parent="WIyWlLk6GJQsqaUBKTNV-1">
          <mxGeometry x="180" y="-30" width="80" height="80" as="geometry" />
        </mxCell>
        <mxCell id="p3q90hySgTaN_ep3nX-Z-24" value="Yes" style="edgeStyle=orthogonalEdgeStyle;rounded=0;orthogonalLoop=1;jettySize=auto;html=1;exitX=0.5;exitY=1;exitDx=0;exitDy=0;" edge="1" parent="WIyWlLk6GJQsqaUBKTNV-1" source="p3q90hySgTaN_ep3nX-Z-31" target="p3q90hySgTaN_ep3nX-Z-0">
          <mxGeometry relative="1" as="geometry">
            <mxPoint x="220" y="240" as="sourcePoint" />
          </mxGeometry>
        </mxCell>
        <mxCell id="p3q90hySgTaN_ep3nX-Z-28" value="No" style="edgeStyle=orthogonalEdgeStyle;rounded=0;orthogonalLoop=1;jettySize=auto;html=1;exitX=1;exitY=0.5;exitDx=0;exitDy=0;entryX=1;entryY=1;entryDx=0;entryDy=0;" edge="1" parent="WIyWlLk6GJQsqaUBKTNV-1" source="p3q90hySgTaN_ep3nX-Z-29" target="p3q90hySgTaN_ep3nX-Z-5">
          <mxGeometry x="-0.5998" relative="1" as="geometry">
            <mxPoint x="370" y="530" as="sourcePoint" />
            <Array as="points">
              <mxPoint x="580" y="500" />
              <mxPoint x="580" y="660" />
            </Array>
            <mxPoint y="-1" as="offset" />
          </mxGeometry>
        </mxCell>
        <mxCell id="p3q90hySgTaN_ep3nX-Z-30" value="Yes" style="edgeStyle=orthogonalEdgeStyle;rounded=0;orthogonalLoop=1;jettySize=auto;html=1;exitX=0.5;exitY=1;exitDx=0;exitDy=0;entryX=0.5;entryY=0;entryDx=0;entryDy=0;" edge="1" parent="WIyWlLk6GJQsqaUBKTNV-1" source="p3q90hySgTaN_ep3nX-Z-29" target="p3q90hySgTaN_ep3nX-Z-6">
          <mxGeometry relative="1" as="geometry" />
        </mxCell>
        <mxCell id="p3q90hySgTaN_ep3nX-Z-29" value="지나치기전인가" style="rhombus;whiteSpace=wrap;html=1;" vertex="1" parent="WIyWlLk6GJQsqaUBKTNV-1">
          <mxGeometry x="390" y="460" width="100" height="80" as="geometry" />
        </mxCell>
        <mxCell id="p3q90hySgTaN_ep3nX-Z-32" value="No" style="edgeStyle=orthogonalEdgeStyle;rounded=0;orthogonalLoop=1;jettySize=auto;html=1;exitX=1;exitY=0.5;exitDx=0;exitDy=0;entryX=1;entryY=0.5;entryDx=0;entryDy=0;" edge="1" parent="WIyWlLk6GJQsqaUBKTNV-1" source="p3q90hySgTaN_ep3nX-Z-31" target="p3q90hySgTaN_ep3nX-Z-10">
          <mxGeometry relative="1" as="geometry" />
        </mxCell>
        <mxCell id="p3q90hySgTaN_ep3nX-Z-31" value="botton on" style="rhombus;whiteSpace=wrap;html=1;" vertex="1" parent="WIyWlLk6GJQsqaUBKTNV-1">
          <mxGeometry x="160" y="160" width="120" height="80" as="geometry" />
        </mxCell>
      </root>
    </mxGraphModel>
  </diagram>
</mxfile>
